<svg width="26" height="26" viewBox="0 0 26 26" fill="none" xmlns="http://www.w3.org/2000/svg">
<path fill-rule="evenodd" clip-rule="evenodd" d="M0 13C0 5.84772 5.84772 0 13 0C20.1523 0 26 5.84772 26 13C26 20.1523 20.1523 26 13 26C10.8114 26 8.62373 25.4326 6.7481 24.3977L2.14026 25.7142C1.01354 26.0361 -0.0361769 25.0113 0.258691 23.8772L1.49584 19.1189C0.575656 17.2812 0 15.2054 0 13ZM13 2C6.95229 2 2 6.95229 2 13C2 14.9727 2.5479 16.8523 3.44235 18.5294C3.56048 18.7509 3.59099 19.0087 3.52782 19.2516L2.40827 23.5576L6.60528 22.3585C6.87141 22.2824 7.15716 22.3201 7.3945 22.4625C9.0373 23.4482 11.0192 24 13 24C19.0477 24 24 19.0477 24 13C24 6.95229 19.0477 2 13 2ZM9.47747 8.5C9.3785 8.5 9.23418 8.53217 9.03273 8.73018L9.02516 8.73763L9.01742 8.74491C8.82587 8.92535 8.70358 9.112 8.62868 9.3021L8.6266 9.30738C8.5449 9.51131 8.5 9.7417 8.5 9.997C8.5 10.4124 8.59565 10.8792 8.81742 11.4055C9.04751 11.946 9.37067 12.5074 9.78592 13.0842C10.2109 13.6668 10.6885 14.2261 11.2196 14.7619C11.7566 15.2925 12.3177 15.7703 12.9085 16.2012C13.4817 16.6178 14.0494 16.9415 14.6061 17.1783C15.1392 17.4051 15.6063 17.5 16.0103 17.5C16.2691 17.5 16.4961 17.4527 16.7003 17.3677L16.7056 17.3655C16.8883 17.2907 17.0659 17.1694 17.2477 16.9695C17.3373 16.8706 17.4045 16.7672 17.4583 16.6535C17.4869 16.5929 17.498 16.5396 17.4998 16.4944L15.7163 15.2302C15.6663 15.1965 15.6256 15.1719 15.593 15.1539C15.5651 15.1757 15.5284 15.2078 15.483 15.2531L15.4783 15.2578L15.0613 15.6687C14.8236 15.9045 14.5029 16.0515 14.1319 16.0515C14.005 16.0515 13.8336 16.0372 13.6436 15.966L13.622 15.9579L13.6008 15.9489C13.5708 15.936 13.5431 15.9233 13.5285 15.9166L13.5244 15.9147L13.5156 15.9107L13.4748 15.8944L13.4278 15.8696C13.1532 15.7245 12.8552 15.5104 12.5391 15.2434L12.5379 15.2423C12.2199 14.9727 11.9143 14.6846 11.6088 14.3852L11.602 14.3786L11.5954 14.3719C11.2911 14.0622 11.0124 13.7547 10.7543 13.4569L10.7471 13.4485C10.487 13.1417 10.2666 12.8456 10.1202 12.5774L10.0774 12.4992L10.0558 12.4343C10.0556 12.4339 10.0555 12.4336 10.0553 12.4332C10.0486 12.4175 10.033 12.3809 10.0175 12.3396L9.99747 12.2862L9.98362 12.2309C9.95615 12.1211 9.93716 12.0004 9.93716 11.8615C9.93716 11.5343 10.0522 11.2049 10.3097 10.9429L10.7305 10.5062L10.7373 10.4994C10.7768 10.46 10.807 10.4259 10.8297 10.3979C10.8129 10.3686 10.7902 10.333 10.7595 10.2904L10.7554 10.2847L9.48779 8.50068C9.48491 8.50028 9.48141 8.5 9.47747 8.5ZM7.63847 7.29627C8.14076 6.80569 8.76486 6.5 9.47747 6.5C9.76912 6.5 10.0697 6.56145 10.349 6.69396C10.6362 6.82764 10.9035 7.03514 11.1106 7.33158L12.3839 9.12368C12.5168 9.30828 12.6288 9.49996 12.7132 9.70384C12.8002 9.90886 12.8681 10.157 12.8681 10.426C12.8681 10.7537 12.7726 11.0587 12.6149 11.3226C12.4902 11.5395 12.3291 11.7353 12.1579 11.9072L12.1103 11.9566C12.1563 12.0152 12.2091 12.0801 12.2694 12.1513C12.504 12.4219 12.7508 12.6938 13.0154 12.9634C13.302 13.2441 13.567 13.4927 13.8306 13.7162C13.9035 13.7778 13.9698 13.8312 14.0297 13.8773L14.0723 13.8354C14.243 13.6652 14.4462 13.4939 14.6818 13.3661C14.939 13.2157 15.2338 13.122 15.5641 13.122C15.8151 13.122 16.0535 13.1759 16.2782 13.2678C16.4833 13.3515 16.6726 13.462 16.8474 13.5807L16.8558 13.5864L18.6831 14.8818C18.9526 15.0693 19.1822 15.3207 19.327 15.6493L19.3338 15.6648L19.3402 15.6806C19.4319 15.9096 19.5 16.1741 19.5 16.4815C19.5 16.8297 19.4221 17.179 19.2663 17.5085C19.1329 17.7906 18.9579 18.061 18.7282 18.3141C18.3707 18.7074 17.9538 19.0152 17.4655 19.2155C17.0095 19.4048 16.5215 19.5 16.0103 19.5C15.2905 19.5 14.5569 19.3309 13.8231 19.0187C13.1131 18.7166 12.4142 18.3145 11.7317 17.8184L11.7305 17.8174C11.0558 17.3254 10.4174 16.7814 9.80987 16.1805L9.803 16.1737C9.20147 15.5673 8.65623 14.9295 8.16821 14.2602L8.16481 14.2555C7.6779 13.5796 7.27475 12.8883 6.9764 12.187L6.97517 12.1841C6.66857 11.457 6.5 10.7253 6.5 9.997C6.5 9.50525 6.58698 9.02156 6.76896 8.56626C6.95727 8.08954 7.25064 7.66353 7.63847 7.29627Z" fill="#AFAFAF"/>
</svg>
