<svg width="26" height="26" viewBox="0 0 26 26" fill="none" xmlns="http://www.w3.org/2000/svg">
<path fill-rule="evenodd" clip-rule="evenodd" d="M25.629 1.22261C25.9062 1.44686 26.043 1.80172 25.9881 2.15399L22.5595 24.154C22.5061 24.4966 22.279 24.7871 21.9594 24.9217C21.6398 25.0562 21.2733 25.0156 20.9909 24.8142L10.7052 17.4809C10.486 17.3246 10.3391 17.0866 10.2976 16.8206C10.2562 16.5547 10.3237 16.2832 10.485 16.0677L13.4981 12.0397L8.43768 15.6476C8.12831 15.8681 7.72066 15.8943 7.38561 15.7152L0.528468 12.0485C0.183078 11.8638 -0.0226974 11.4945 0.00199898 11.1036C0.0266954 10.7127 0.277317 10.3722 0.643205 10.2325L24.6432 1.06583C24.9763 0.938616 25.3519 0.998349 25.629 1.22261ZM3.40486 11.3186L7.78169 13.659L17.5623 6.68576C17.9636 6.39966 18.5135 6.44858 18.858 6.80103C19.2025 7.15349 19.2388 7.70437 18.9436 8.09901L12.6993 16.4464L20.8328 22.2453L23.7465 3.54923L3.40486 11.3186Z" fill="#AFAFAF"/>
</svg>
