<svg width="26" height="26" viewBox="0 0 26 26" fill="none" xmlns="http://www.w3.org/2000/svg">
<path fill-rule="evenodd" clip-rule="evenodd" d="M0 6C0 4.34315 1.34315 3 3 3H23C24.6569 3 26 4.34315 26 6V20C26 21.6569 24.6569 23 23 23H3C1.34315 23 0 21.6569 0 20V6ZM3 5C2.44772 5 2 5.44772 2 6V20C2 20.5523 2.44772 21 3 21H23C23.5523 21 24 20.5523 24 20V6C24 5.44771 23.5523 5 23 5H3Z" fill="#AFAFAF"/>
<path fill-rule="evenodd" clip-rule="evenodd" d="M11.0404 14.268L1 5.67098L2.3064 4L12.3468 12.597C12.7268 12.9223 13.2732 12.9223 13.6532 12.597L23.6936 4L25 5.67098L14.9596 14.268C13.8197 15.244 12.1803 15.244 11.0404 14.268Z" fill="#AFAFAF"/>
</svg>
